# xmcd
#
# Track frame offsets: 
#        150
#        16401
#        36008
#        59319
#        83476
#        99176
#        116333
#        133141
#        162986
#        183722
#        203327
#        223266
#        241473
#
# Disc length: 3447 seconds
#
# Revision: 1
# Processed by: cddbd v1.5.2PL0 Copyright (c) Steve Scherf et al.
# Submitted via: ExactAudioCopy v0.95a5
#
DISCID=a90d750d
DTITLE=Artisti vari - Radici
DYEAR=1900
DGENRE=
TTITLE0=Nour Edinne - Yallala ilali
TTITLE1=Agricantus - Spiranza
TTITLE2=Panjabi MC - Jatt ho giya sharabee
TTITLE3=Cheb Khaled - Hana-hana
TTITLE4=Nidi d'Arac - Sule de iernu
TTITLE5=Avitabile e Mory Kante - Mane e mane(kelendi-kelendi)
TTITLE6=Eugenio Bennato - Taranta power
TTITLE7=Trancedental - Istanbul uyurken
TTITLE8=Daniele Sepe - Tarantella calabrese
TTITLE9=Klezroym - Oyfn pripetshik
TTITLE10=Novalia - Ebla
TTITLE11=Jhon TrudellBlue indians
TTITLE12=Miriam Makeba - Pata pata 2000
EXTD=
EXTT0=
EXTT1=
EXTT2=
EXTT3=
EXTT4=
EXTT5=
EXTT6=
EXTT7=
EXTT8=
EXTT9=
EXTT10=
EXTT11=
EXTT12=
PLAYORDER=
